<svg width="80" height="88" viewBox="0 0 80 88" fill="none" xmlns="http://www.w3.org/2000/svg">
<path d="M67.1869 79.4611C74.8263 79.4611 80 74.3011 80 66.6481V12.8131C80 5.17367 74.8263 0 67.1869 0H12.8131C5.17367 0 0 5.17367 0 12.8131V87.0896L6.56166 79.4639V12.8131C6.56741 11.1581 7.22832 9.57279 8.39983 8.40383C9.57134 7.23487 11.1581 6.57742 12.8131 6.57527H67.1733C67.9925 6.57527 68.8036 6.73661 69.5604 7.05009C70.3172 7.36357 71.0049 7.82304 71.5841 8.40228C72.1633 8.98151 72.6228 9.66916 72.9363 10.426C73.2498 11.1828 73.4111 11.9939 73.4111 12.8131V66.6481C73.4111 67.4672 73.2498 68.2784 72.9363 69.0352C72.6228 69.792 72.1633 70.4796 71.5841 71.0589C71.0049 71.6381 70.3172 72.0976 69.5604 72.411C68.8036 72.7245 67.9925 72.8859 67.1733 72.8859H21.5737L14.9957 79.4639L14.9522 79.4203L67.1869 79.4611Z" fill="#E0322F"/>
<path d="M26.8965 19.0616C26.4146 18.4662 25.837 18.1685 25.1637 18.1685C24.4904 18.1685 23.9128 18.4662 23.4308 19.0616C22.9489 19.6498 22.5945 20.4294 22.3677 21.4004C22.1409 22.3714 22.0275 23.4805 22.0275 24.7279C22.0275 25.9753 22.1409 27.0845 22.3677 28.0554C22.5945 29.0264 22.9489 29.806 23.4308 30.3943C23.9128 30.9825 24.4904 31.2766 25.1637 31.2766C25.837 31.2766 26.4146 30.9825 26.8965 30.3943C27.3785 29.806 27.7328 29.0264 27.9596 28.0554C28.1864 27.0845 28.2998 25.9753 28.2998 24.7279C28.2998 23.4805 28.1864 22.3714 27.9596 21.4004C27.7328 20.4294 27.3785 19.6498 26.8965 19.0616ZM25.1637 32.9245C24.2919 32.9245 23.5159 32.7047 22.8355 32.2653C22.1551 31.8188 21.6094 31.2129 21.1983 30.4474C20.362 28.9095 19.9438 26.9994 19.9438 24.7173C19.9438 21.8965 20.5002 19.7455 21.6129 18.2642C22.0027 17.7398 22.4988 17.3216 23.1012 17.0098C23.7108 16.6979 24.3982 16.542 25.1637 16.542C25.9291 16.542 26.613 16.6979 27.2155 17.0098C28.3282 17.5767 29.1326 18.5654 29.6287 19.9758C30.1319 21.3791 30.3835 22.9596 30.3835 24.7173C30.3835 26.4749 30.1177 28.059 29.5862 29.4694C29.0617 30.8797 28.2573 31.872 27.1729 32.4461C27.8321 33.7714 28.8101 35.0117 30.1071 36.1669L28.7889 37.5277C27.2793 36.0677 26.1205 34.5333 25.3125 32.9245C25.2629 32.9245 25.2133 32.9245 25.1637 32.9245Z" fill="#E0322F"/>
<path d="M42.588 31.6381C41.78 32.4957 40.4689 32.9245 38.6545 32.9245C36.8401 32.9245 35.5254 32.4957 34.7104 31.6381C33.9024 30.7805 33.4984 29.4056 33.4984 27.5132V16.8078H35.4864V27.4495C35.4864 28.7394 35.7026 29.6997 36.1349 30.3305C36.5673 30.9613 37.4071 31.2766 38.6545 31.2766C39.9019 31.2766 40.7417 30.9613 41.174 30.3305C41.6064 29.6997 41.8225 28.7394 41.8225 27.4495V16.8078H43.8106V27.5132C43.8106 29.4056 43.403 30.7805 42.588 31.6381Z" fill="#E0322F"/>
<path d="M49.4982 25.387V31.1065H56.9824L56.823 32.6587H47.5102V16.8078H56.6316L56.4615 18.3599H49.4982V23.6967H56.1107V25.387H49.4982Z" fill="#E0322F"/>
<path d="M25.5996 45.0864L24.898 46.4791C23.9553 45.7491 22.9348 45.3841 21.8362 45.3841C20.7377 45.3841 19.8305 45.6924 19.1147 46.309C17.7114 47.5068 17.0097 49.3778 17.0097 51.9222C17.0097 53.1483 17.1905 54.2539 17.5519 55.2391C17.9134 56.2242 18.4485 57.0145 19.1572 57.6098C19.873 58.1981 20.7058 58.4922 21.6555 58.4922C22.8958 58.4922 23.9837 58.1095 24.9192 57.344L25.6103 58.843C24.618 59.7077 23.2183 60.14 21.411 60.14C20.114 60.14 18.9694 59.7856 17.9771 59.0769C16.992 58.3611 16.2372 57.383 15.7127 56.1427C15.1883 54.8953 14.926 53.5735 14.926 52.1773C14.926 50.774 15.0926 49.5621 15.4257 48.5415C15.7588 47.5138 16.2124 46.6527 16.7865 45.9582C17.3676 45.2636 18.0551 44.725 18.8489 44.3422C19.6427 43.9524 20.4967 43.7575 21.411 43.7575C23.1757 43.7575 24.5719 44.2005 25.5996 45.0864Z" fill="#E0322F"/>
<path d="M30.1603 59.8742H28.1723V44.0233H30.1603V50.7847H36.2732V44.0233H38.2612V59.8742H36.2732V52.4112H30.1603V59.8742Z" fill="#E0322F"/>
<path d="M48.0205 46.2771C47.5386 45.6818 46.961 45.3841 46.2877 45.3841C45.6144 45.3841 45.0367 45.6818 44.5548 46.2771C44.0729 46.8653 43.7185 47.645 43.4917 48.6159C43.2649 49.5869 43.1515 50.6961 43.1515 51.9435C43.1515 53.1908 43.2649 54.3 43.4917 55.271C43.7185 56.2419 44.0729 57.0216 44.5548 57.6098C45.0367 58.1981 45.6144 58.4922 46.2877 58.4922C46.961 58.4922 47.5386 58.1981 48.0205 57.6098C48.5025 57.0216 48.8568 56.2419 49.0836 55.271C49.3104 54.3 49.4238 53.1908 49.4238 51.9435C49.4238 50.6961 49.3104 49.5869 49.0836 48.6159C48.8568 47.645 48.5025 46.8653 48.0205 46.2771ZM48.6159 59.4809C47.9355 59.9203 47.1594 60.14 46.2877 60.14C45.4159 60.14 44.6398 59.9203 43.9595 59.4809C43.2791 59.0344 42.7298 58.4284 42.3116 57.663C41.4824 56.125 41.0678 54.215 41.0678 51.9328C41.0678 49.112 41.6242 46.961 42.7369 45.4798C43.1267 44.9553 43.6228 44.5371 44.2252 44.2253C44.8347 43.9135 45.5222 43.7575 46.2877 43.7575C47.0531 43.7575 47.7406 43.9135 48.3501 44.2253C49.4557 44.7923 50.2566 45.781 50.7527 47.1914C51.2559 48.5947 51.5075 50.1752 51.5075 51.9328C51.5075 54.215 51.0929 56.125 50.2637 57.663C49.8455 58.4284 49.2963 59.0344 48.6159 59.4809Z" fill="#E0322F"/>
<path d="M63.2974 58.8536C62.4894 59.7112 61.1782 60.14 59.3639 60.14C57.5495 60.14 56.2348 59.7112 55.4197 58.8536C54.6118 57.9961 54.2078 56.6211 54.2078 54.7288V44.0233H56.1958V54.665C56.1958 55.9549 56.412 56.9152 56.8443 57.546C57.2766 58.1768 58.1165 58.4922 59.3639 58.4922C60.6112 58.4922 61.4511 58.1768 61.8834 57.546C62.3158 56.9152 62.5319 55.9549 62.5319 54.665V44.0233H64.5199V54.7288C64.5199 56.6211 64.1124 57.9961 63.2974 58.8536Z" fill="#E0322F"/>
</svg>
